PathFileType	4	(X/Y/Z)	C:/Users/opensim2020/Desktop/walking_exp_matlab/subject01_walking04_static.trc	
DataRate	CameraRate	NumFrames	NumMarkers	Units	OrigDataRate	OrigDataStartFrame	OrigNumFrames	
100.00	100.00	6	43	mm	100.00	241	321	
Frame#	Time	LFHD			RFHD			LBHD			RBHD			C7			T10			CLAV			STRN			RBAK			LSHO			LUPA			LELB			LFRM			LWRA			LWRB			LFIN			RSHO			RUPA			RELB			RFRM			RWRA			RWRB			RFIN			LASI			RASI			LPSI			RPSI			LTHI			LKNE			LTIB			LANK			LHEE			LTOE			RTHI			RKNE			RTIB			RANK			RHEE			RTOE			*39			*40			*41			*42			
		X1	Y1	Z1	X2	Y2	Z2	X3	Y3	Z3	X4	Y4	Z4	X5	Y5	Z5	X6	Y6	Z6	X7	Y7	Z7	X8	Y8	Z8	X9	Y9	Z9	X10	Y10	Z10	X11	Y11	Z11	X12	Y12	Z12	X13	Y13	Z13	X14	Y14	Z14	X15	Y15	Z15	X16	Y16	Z16	X17	Y17	Z17	X18	Y18	Z18	X19	Y19	Z19	X20	Y20	Z20	X21	Y21	Z21	X22	Y22	Z22	X23	Y23	Z23	X24	Y24	Z24	X25	Y25	Z25	X26	Y26	Z26	X27	Y27	Z27	X28	Y28	Z28	X29	Y29	Z29	X30	Y30	Z30	X31	Y31	Z31	X32	Y32	Z32	X33	Y33	Z33	X34	Y34	Z34	X35	Y35	Z35	X36	Y36	Z36	X37	Y37	Z37	X38	Y38	Z38	X39	Y39	Z39	X40	Y40	Z40	X41	Y41	Z41	X42	Y42	Z42	X43	Y43	Z43	

241	2.400	10.91145	-403.51831	1684.34070	7.46872	-289.49106	1693.69897	109.91249	-403.72021	1607.36646	109.95592	-283.37265	1615.45874	115.63458	-356.16486	1437.89709	141.75229	-346.45572	1143.83643	-30.48287	-345.55392	1374.74585	-78.78573	-345.40115	1220.19238	167.89012	-277.51056	1242.29651	21.44774	-510.09485	1398.22485	43.36790	-604.91486	1221.20679	54.33849	-627.55463	1073.03210	3.78008	-637.13361	964.51080	-66.38457	-590.67065	852.39587	-25.76408	-635.01227	846.19281	-77.26757	-623.89740	778.78149	38.98662	-198.72714	1400.61597	90.82733	-82.88537	1210.68347	76.09231	-56.99597	1087.02734	28.70763	-38.10313	969.90277	-39.23800	-90.59073	855.30255	-19.86188	-35.87043	856.71857	-54.26245	-54.07817	779.80725	-43.95010	-445.37817	937.95996	-32.75666	-228.16318	941.79187	147.59157	-404.20450	951.91168	153.72209	-261.63284	957.17706	5.97286	-517.68695	606.97089	26.72188	-508.02600	472.58517	77.24861	-530.64844	292.97568	84.90298	-488.45950	71.49418	124.14034	-435.90417	39.24978	-64.27565	-509.13464	33.32239	39.22821	-157.77084	613.38007	29.43662	-173.42857	456.53293	74.86291	-151.09254	287.71735	79.98077	-178.96680	78.50393	124.77986	-227.73782	35.22631	-61.46439	-164.27255	37.13894	28.48431	-313.50177	1722.19958	-3101.94019	1973.14429	1023.32983	-3140.71069	2012.50281	1021.94812			 
242	2.410	10.90503	-403.55566	1684.32764	7.46991	-289.52649	1693.71680	109.90764	-403.74951	1607.34961	110.01550	-283.39456	1615.46179	115.60691	-356.17932	1437.88452	141.74709	-346.40820	1143.85132	-30.45746	-345.54944	1374.72949	-78.80177	-345.38861	1220.19116	167.85603	-277.47806	1242.30457	21.44820	-510.09018	1398.19812	43.35916	-604.89606	1221.16589	54.33725	-627.50684	1072.98157	3.77466	-637.09747	964.47156	-66.35658	-590.65442	852.36090	-25.74749	-634.96985	846.12494	-77.20596	-623.88434	778.71307	39.00087	-198.72403	1400.62830	90.74343	-82.84129	1210.70056	76.02509	-56.94482	1087.04797	28.63254	-38.05564	969.96100	-39.29208	-90.53487	855.29700	-19.91009	-35.75713	856.74921	-54.17196	-53.99538	779.81775	-43.93428	-445.32428	937.93793	-32.77305	-228.12170	941.81293	147.58650	-404.17398	951.93262	153.71953	-261.57199	957.20801	5.98029	-517.62970	606.95618	26.73797	-507.99747	472.59494	77.29146	-530.61987	292.95496	84.92912	-488.46960	71.48098	124.21881	-435.96780	39.28495	-64.26373	-509.14471	33.33180	39.25291	-157.75233	613.36340	29.43159	-173.37172	456.51529	74.86260	-151.08926	287.72458	79.94302	-179.00710	78.45386	124.79854	-227.68564	35.28897	-61.46727	-164.24506	37.15189	28.43949	-313.52750	1722.19824	-3101.78882	1973.03528	1023.35968	-3140.65771	2012.46582	1022.01221			 
243	2.420	10.91378	-403.56461	1684.31165	7.44754	-289.53113	1693.73889	109.91558	-403.76468	1607.34412	109.98581	-283.40427	1615.46167	115.59914	-356.18155	1437.87964	141.71112	-346.39014	1143.86011	-30.49975	-345.55692	1374.75867	-78.82131	-345.37311	1220.20691	167.82811	-277.42984	1242.31873	21.44562	-510.09229	1398.16040	43.36685	-604.87225	1221.12744	54.34929	-627.48102	1072.95898	3.80868	-637.04840	964.43005	-66.42402	-590.48383	852.34381	-25.71146	-634.93695	846.11108	-77.16792	-623.85028	778.67480	38.94236	-198.73633	1400.62134	90.66913	-82.80936	1210.72131	75.94238	-56.89219	1087.06799	28.57563	-37.98118	969.99133	-39.35653	-90.43726	855.31952	-19.99580	-35.67508	856.78613	-54.34182	-53.89882	779.86572	-43.95017	-445.26291	937.93610	-32.75808	-228.07242	941.79425	147.60043	-404.13376	951.96143	153.71297	-261.48642	957.23254	6.00399	-517.60431	606.94745	26.77170	-507.94177	472.57111	77.29575	-530.59979	292.97229	84.95190	-488.39240	71.48409	124.15898	-435.89243	39.22482	-64.26732	-509.12997	33.29646	39.27993	-157.70868	613.36823	29.44899	-173.31328	456.52481	74.84586	-151.08041	287.68719	79.96448	-178.99339	78.43571	124.80530	-227.62598	35.26299	-61.46804	-164.24736	37.18424	28.48667	-313.57474	1722.19666	-3101.88696	1973.15552	1023.43536	-3140.67651	2012.48328	1021.92767			 
244	2.430	10.92689	-403.59863	1684.33057	7.44447	-289.56534	1693.74121	109.90714	-403.79214	1607.32251	110.02261	-283.40292	1615.46069	115.58205	-356.17990	1437.88403	141.72076	-346.29236	1143.86865	-30.50793	-345.55106	1374.75696	-78.84557	-345.36179	1220.21704	167.83612	-277.41275	1242.34729	21.45024	-510.08359	1398.15161	43.37856	-604.86481	1221.11499	54.37786	-627.46094	1072.92896	3.82666	-637.06506	964.42133	-66.41069	-590.45667	852.31073	-25.69983	-634.91986	846.07471	-77.18085	-623.82416	778.63544	38.90642	-198.71205	1400.64526	90.60629	-82.75368	1210.76355	75.88336	-56.86739	1087.11084	28.51996	-37.91392	970.04102	-39.41164	-90.35939	855.33118	-20.02280	-35.58396	856.80829	-54.40146	-53.79718	779.85608	-43.94202	-445.20734	937.92883	-32.78962	-227.99940	941.80365	147.60439	-404.05838	951.98230	153.65076	-261.46719	957.22034	6.04438	-517.56378	606.97369	26.81553	-507.93677	472.59143	77.33469	-530.57886	292.97202	84.91783	-488.41769	71.45709	124.20405	-435.96066	39.28610	-64.27437	-509.14548	33.35653	39.27568	-157.65915	613.37634	29.47142	-173.28381	456.48343	74.83226	-151.09081	287.70010	79.96020	-178.97209	78.46857	124.86270	-227.62068	35.31794	-61.45219	-164.23048	37.14544	28.50273	-313.58994	1722.19629	-3102.01514	1973.09363	1023.41089	-3140.63916	2012.44568	1021.88196			 
245	2.440	10.92292	-403.61017	1684.32544	7.50497	-289.58304	1693.74023	109.89697	-403.78119	1607.31812	110.00479	-283.41989	1615.47168	115.56460	-356.17712	1437.89404	141.71931	-346.26404	1143.88367	-30.53553	-345.53958	1374.75513	-78.88542	-345.34250	1220.20178	167.79018	-277.39108	1242.35449	21.44567	-510.08066	1398.13940	43.40996	-604.82227	1221.07678	54.38042	-627.44324	1072.90112	3.82427	-637.03748	964.38519	-66.41741	-590.40717	852.27289	-25.70788	-634.90637	846.05029	-77.14857	-623.81769	778.61768	38.89454	-198.72424	1400.66028	90.56754	-82.71751	1210.79102	75.84080	-56.81497	1087.13660	28.48253	-37.83827	970.06036	-39.48370	-90.25418	855.38678	-20.07668	-35.45631	856.87177	-54.45214	-53.69248	779.89679	-43.93706	-445.15958	937.89868	-32.79964	-227.96692	941.80255	147.60056	-404.00986	951.97748	153.67993	-261.39532	957.26978	6.09604	-517.53284	606.96582	26.83350	-507.91516	472.60559	77.32557	-530.54156	292.94388	84.91050	-488.42062	71.47932	124.14885	-435.89929	39.22144	-64.28250	-509.15274	33.34443	39.29362	-157.60655	613.38324	29.44438	-173.25726	456.49347	74.81190	-151.04332	287.69690	79.91133	-178.92867	78.50207	124.88203	-227.59819	35.29287	-61.43843	-164.25290	37.16277	28.49258	-313.60666	1722.21851	-3101.75391	1973.17578	1023.36310	-3140.57617	2012.54236	1022.02789			 
246	2.450	10.92531	-403.62909	1684.33337	7.48367	-289.60754	1693.75256	109.87988	-403.79843	1607.29285	109.99670	-283.45007	1615.41565	115.51788	-356.15436	1437.88013	141.71216	-346.23947	1143.86536	-30.55396	-345.54681	1374.77771	-78.92604	-345.32639	1220.22522	167.78682	-277.37180	1242.35339	21.43553	-510.08749	1398.10669	43.41493	-604.80121	1221.04126	54.36489	-627.39026	1072.84058	3.82885	-636.98529	964.34821	-66.41863	-590.38409	852.26208	-25.69992	-634.87860	846.01953	-77.15677	-623.77612	778.58636	38.85889	-198.71324	1400.65222	90.52722	-82.69341	1210.77942	75.78944	-56.75925	1087.16284	28.43554	-37.77961	970.11871	-39.52333	-90.12759	855.40833	-20.13866	-35.40149	856.89941	-54.52905	-53.30346	780.01746	-43.93909	-445.09885	937.91437	-32.80954	-227.95129	941.79498	147.59596	-403.92474	951.98505	153.66959	-261.31134	957.26276	6.13924	-517.50348	606.97363	26.90236	-507.86014	472.58701	77.36310	-530.51727	292.96036	84.93893	-488.42914	71.53545	124.22305	-435.93753	39.27108	-64.26859	-509.14764	33.34924	39.28836	-157.54378	613.37402	29.44987	-173.17955	456.52158	74.80267	-151.01318	287.68900	79.92857	-178.98235	78.44807	124.83661	-227.63878	35.26588	-61.43689	-164.21669	37.17841	28.52678	-313.62430	1722.19409	-3101.98901	1973.16638	1023.28784	-3140.67676	2012.51563	1021.91357			 
